<svg xmlns="http://www.w3.org/2000/svg" viewBox="80 80 910 275" width="910" height="275">
  <title>MELARA</title>
  <desc>Logotipo MELARA — master vectorial de produccion. Beziers cubicas, sin fuentes ni efectos.</desc>
  <rect x="80" y="80" width="910" height="275" fill="#5D2214"/>
  <g id="logotipo-MELARA" fill="#F3EEEA" fill-rule="evenodd">
    <g id="M-caligrafica">
      <path id="path_1" d="M 441.41 322.16 C 435.53 322.62 429.62 322.14 423.73 322.12 C 421.67 322.11 419.62 322.21 417.57 322.26 C 416.32 322.29 414.60 322.38 413.95 321.32 C 412.95 319.70 413.78 317.51 413.88 315.62 C 413.93 314.62 413.96 313.62 414.05 312.63 C 414.21 310.66 414.55 308.71 414.62 306.73 C 414.95 298.27 413.80 289.80 413.89 281.33 C 413.98 273.41 412.88 265.53 411.98 257.66 C 410.43 244.03 409.32 230.28 406.34 216.88 C 404.37 208.05 401.96 199.22 398.27 190.96 C 395.58 184.94 391.35 178.22 385.06 176.24 C 380.98 174.95 376.07 176.10 372.41 178.30 C 370.31 179.56 368.52 181.31 366.82 183.07 C 364.46 185.52 362.34 188.22 360.44 191.04 C 357.51 195.40 354.74 199.87 352.23 204.48 C 351.54 205.74 350.82 206.99 350.10 208.24 C 348.94 210.27 347.89 212.35 346.75 214.39 C 346.51 214.81 346.27 215.23 346.03 215.65 C 345.56 216.47 345.09 217.30 344.63 218.13 C 343.29 220.55 342.08 223.04 340.83 225.51 C 340.21 226.75 339.59 227.98 338.95 229.21 C 338.73 229.63 338.51 230.04 338.29 230.46 C 337.84 231.31 337.40 232.16 336.95 233.01 C 336.26 234.30 335.58 235.60 334.90 236.90 C 330.06 246.14 325.35 255.50 319.74 264.30 C 316.63 269.20 313.37 274.13 309.17 278.14 C 305.42 281.73 300.65 284.60 295.59 285.76 C 294.64 285.97 293.67 286.10 292.70 286.16 C 290.70 286.26 288.70 286.17 286.70 286.06 C 278.65 285.62 271.13 279.94 265.77 273.91 C 257.96 265.13 252.16 254.65 246.82 244.19 C 232.72 216.55 222.97 186.91 210.58 158.47 C 205.83 147.56 201.07 136.52 194.48 126.62 C 190.22 120.22 185.28 113.36 178.26 110.25 C 172.69 107.79 165.52 108.39 160.02 111.00 C 156.96 112.45 154.24 114.58 151.57 116.68 C 147.33 120.02 143.78 124.19 140.35 128.35 C 135.15 134.67 130.43 141.40 126.17 148.38 C 124.44 151.21 122.69 154.03 121.05 156.91 C 120.10 158.56 119.16 160.21 118.28 161.90 C 116.29 165.68 114.17 169.40 112.35 173.27 C 110.52 177.17 108.55 181.00 106.71 184.89 C 104.46 189.64 102.22 194.39 100.15 199.21 C 97.75 204.81 95.40 210.44 93.26 216.15 C 92.56 218.03 91.99 219.96 91.30 221.85 C 90.99 222.67 90.30 224.78 89.85 224.03 C 88.94 222.54 90.37 220.56 90.94 218.91 C 91.72 216.64 92.44 214.35 93.10 212.05 C 95.36 204.24 97.85 196.51 100.38 188.79 C 105.52 173.15 111.11 157.56 118.43 142.81 C 120.75 138.14 123.08 133.48 125.62 128.93 C 127.02 126.43 128.44 123.94 129.98 121.53 C 137.27 110.19 146.54 98.81 158.75 93.11 C 159.61 92.71 160.49 92.33 161.38 92.00 C 163.17 91.32 165.04 90.83 166.91 90.38 C 168.81 89.92 170.76 89.61 172.72 89.56 C 177.13 89.45 181.61 90.07 185.82 91.39 C 197.66 95.12 206.95 105.63 213.77 116.01 C 221.79 128.22 228.00 141.55 234.43 154.67 C 237.75 161.44 240.48 168.49 243.54 175.38 C 247.94 185.27 252.21 195.21 256.41 205.18 C 260.96 215.98 266.05 226.54 271.20 237.06 C 275.64 246.12 280.37 256.35 289.04 261.50 C 290.69 262.48 292.64 263.24 294.56 263.17 C 297.92 263.04 301.24 261.35 303.86 259.25 C 310.58 253.84 314.54 245.63 318.86 238.17 C 326.21 225.49 332.89 212.44 340.23 199.76 C 344.07 193.15 347.93 186.52 352.40 180.31 C 357.82 172.79 364.33 165.23 372.76 161.35 C 378.46 158.73 385.23 158.06 391.43 158.98 C 400.69 160.33 408.64 168.27 413.56 176.22 C 417.04 181.83 419.68 187.97 421.84 194.21 C 422.91 197.29 423.95 200.38 424.86 203.50 C 426.31 208.46 427.48 213.50 428.74 218.51 C 430.85 226.92 431.71 235.58 433.22 244.12 C 433.98 248.42 434.39 252.78 434.85 257.13 C 435.61 264.44 436.29 271.75 436.71 279.09 C 436.91 282.52 438.00 285.92 437.80 289.36 C 437.49 294.77 438.92 300.18 438.68 305.60 C 438.50 309.50 439.10 313.46 440.10 317.23 C 440.54 318.88 442.74 321.10 441.41 322.16 Z"/>
    </g>
    <g id="E">
      <path id="path_2" d="M 474.89 321.56 C 475.68 318.12 476.75 314.67 476.85 311.14 C 477.07 303.64 476.88 296.14 476.88 288.64 C 476.87 270.64 477.49 252.63 476.83 234.64 C 476.68 230.58 474.82 226.70 474.75 222.64 C 486.40 221.66 498.13 222.58 509.82 222.63 C 513.72 222.64 517.62 222.61 521.52 222.56 C 523.82 222.53 526.41 222.07 528.38 223.25 C 529.29 223.80 529.77 224.91 530.15 225.90 C 528.74 227.03 526.48 226.42 524.71 226.04 C 522.09 225.46 519.44 224.95 516.76 224.71 C 511.39 224.22 505.97 224.29 500.58 224.46 C 497.05 224.57 493.31 224.33 490.05 225.70 C 486.98 231.40 488.88 238.61 488.88 245.08 C 488.88 249.58 488.93 254.08 488.89 258.58 C 488.87 261.83 488.53 265.21 489.46 268.32 C 492.40 269.61 495.85 269.22 499.06 269.17 C 503.25 269.11 507.46 269.13 511.62 268.56 C 514.49 268.16 517.42 267.18 520.27 267.70 C 519.90 269.22 518.96 270.94 517.49 271.47 C 515.03 272.35 512.27 271.32 509.68 271.06 C 505.21 270.60 500.70 270.80 496.21 270.78 C 493.91 270.77 491.44 270.82 489.39 271.86 C 488.49 274.99 488.80 278.36 488.85 281.62 C 488.92 286.12 488.88 290.62 488.88 295.12 C 488.88 302.55 487.18 310.46 489.87 317.39 C 494.78 320.60 501.41 320.08 507.28 320.11 C 513.87 320.16 520.51 319.77 526.99 318.59 C 530.16 318.00 533.14 316.63 536.17 315.55 C 535.95 317.75 535.82 320.79 533.83 321.76 C 531.73 322.79 529.18 322.32 526.84 322.29 C 522.04 322.24 517.25 321.88 512.45 321.88 C 504.35 321.87 496.25 322.11 488.15 322.11 C 483.73 322.10 479.09 322.96 474.89 321.56 Z"/>
    </g>
    <g id="L">
      <path id="path_3" d="M 626.27 322.14 C 615.46 323.19 604.56 321.67 593.70 321.77 C 587.64 321.83 581.59 322.02 575.53 322.10 C 572.41 322.14 569.24 322.59 566.19 321.99 C 565.52 318.81 567.13 315.55 567.41 312.31 C 567.55 310.64 567.65 308.98 567.70 307.31 C 567.97 297.70 567.62 288.08 567.62 278.47 C 567.63 270.95 567.58 263.43 567.68 255.90 C 567.77 248.80 568.04 241.68 567.47 234.60 C 567.25 231.91 567.00 229.19 566.37 226.57 C 566.08 225.40 565.74 224.20 565.81 223.00 C 567.90 222.17 570.28 222.43 572.52 222.50 C 574.78 222.57 577.14 222.33 579.28 223.04 C 580.58 225.78 579.59 229.12 579.28 232.13 C 578.91 235.66 579.04 239.23 579.08 242.78 C 579.25 258.86 579.13 274.96 579.13 291.04 C 579.12 296.27 579.10 301.49 579.10 306.72 C 579.09 310.42 578.78 314.41 580.40 317.74 C 584.73 320.52 590.48 320.18 595.62 320.34 C 603.54 320.60 611.59 320.25 619.31 318.51 C 622.47 317.79 625.21 315.56 628.41 315.10 C 628.16 317.54 627.62 320.09 626.27 322.14 Z"/>
    </g>
    <g id="A-estructural">
      <path id="path_4" d="M 743.93 322.11 C 740.52 322.30 737.09 322.12 733.67 322.18 C 731.20 322.22 728.66 322.62 726.24 322.09 C 725.09 319.71 725.45 316.84 724.73 314.30 C 723.30 309.26 720.71 304.62 718.70 299.79 C 717.14 296.05 716.26 291.75 713.48 288.81 C 710.92 287.94 708.11 288.15 705.41 288.16 C 701.99 288.17 698.58 288.02 695.16 288.02 C 688.15 288.00 680.60 287.23 674.25 290.19 C 671.48 293.46 670.55 297.94 669.08 301.96 C 667.51 306.23 665.35 310.36 664.59 314.84 C 664.19 317.19 665.18 319.63 664.74 321.97 C 662.39 322.59 659.80 322.58 657.45 321.98 C 657.75 319.83 659.44 318.12 660.46 316.20 C 662.06 313.19 663.09 309.90 664.32 306.72 C 667.68 297.99 671.22 289.34 674.62 280.63 C 675.11 279.35 679.83 267.49 679.92 267.28 C 681.28 263.90 685.51 252.82 685.60 252.60 C 685.97 251.64 686.90 249.19 687.06 248.77 C 687.31 248.13 688.13 246.00 688.29 245.58 C 688.62 244.72 688.94 243.87 689.27 243.02 C 689.59 242.17 690.57 239.61 690.73 239.19 C 690.98 238.55 691.22 237.91 691.46 237.27 C 692.58 234.28 693.77 231.32 694.79 228.29 C 695.57 225.99 696.13 223.41 697.78 221.63 C 699.82 223.71 700.70 226.69 701.83 229.37 C 703.50 233.36 705.19 237.36 706.89 241.34 C 708.32 244.70 709.76 248.05 711.20 251.40 C 713.35 256.43 715.49 261.47 717.62 266.51 C 720.80 274.08 723.96 281.66 727.17 289.21 C 730.83 297.81 733.79 306.75 738.23 314.97 C 739.68 317.65 742.56 319.39 743.93 322.11 Z"/>
      <path id="path_5" d="M 712.41 285.81 C 713.05 283.70 711.31 281.53 710.43 279.52 C 709.05 276.39 707.85 273.18 706.52 270.03 C 703.87 263.73 701.31 257.38 698.69 251.06 C 697.24 247.57 696.99 242.69 693.67 240.87 C 690.68 241.72 690.36 246.17 689.21 249.06 C 687.87 252.40 686.51 255.73 685.17 259.07 C 684.52 260.69 683.90 262.33 683.28 263.97 C 682.69 265.53 682.11 267.09 681.53 268.66 C 680.34 271.86 679.17 275.08 677.92 278.26 C 676.79 281.16 674.23 284.79 675.95 287.38 C 678.28 287.66 680.57 286.49 682.90 286.27 C 687.18 285.85 691.49 286.09 695.79 286.22 C 699.20 286.33 702.63 286.25 706.05 286.32 C 708.18 286.37 710.71 287.08 712.41 285.81 Z"/>
    </g>
    <g id="R">
      <path id="path_6" d="M 800.92 275.56 C 797.30 274.87 793.37 274.42 789.86 275.57 C 788.13 281.50 789.03 287.90 789.05 294.07 C 789.05 296.15 789.07 298.22 789.08 300.29 C 789.11 304.78 788.86 309.29 789.33 313.75 C 789.61 316.44 790.44 319.05 790.98 321.70 C 786.05 323.02 780.72 322.65 775.68 321.85 C 775.41 318.56 776.80 315.32 777.01 312.03 C 777.50 304.44 777.13 296.82 777.13 289.22 C 777.12 277.12 777.14 265.02 777.10 252.92 C 777.08 245.33 777.93 237.65 776.71 230.16 C 776.29 227.55 775.11 225.12 774.33 222.59 C 778.78 222.12 783.27 222.69 787.74 222.66 C 794.30 222.61 800.88 222.13 807.43 222.57 C 817.32 223.24 829.10 226.80 834.34 235.21 C 839.13 242.88 837.90 255.04 832.48 262.27 C 829.84 265.80 826.05 268.55 822.04 270.37 C 818.96 271.77 815.49 272.35 812.63 274.16 C 813.66 277.04 815.63 279.50 817.38 282.01 C 821.15 287.39 824.89 292.79 828.97 297.94 C 840.65 312.64 855.30 326.52 872.79 333.36 C 878.57 335.61 884.65 337.28 890.82 337.90 C 894.91 338.32 899.06 337.83 903.15 338.26 C 901.71 339.86 898.93 339.20 896.79 339.34 C 893.34 339.57 889.90 339.92 886.45 339.91 C 875.14 339.87 863.52 337.53 853.29 332.69 C 839.39 326.12 827.62 314.71 818.66 302.21 C 814.84 296.88 811.28 291.35 807.81 285.78 C 805.64 282.29 803.84 278.45 800.92 275.56 Z"/>
      <path id="path_7" d="M 803.12 273.91 C 806.27 273.56 809.51 273.13 812.40 271.82 C 815.36 270.48 817.92 268.23 820.05 265.78 C 824.77 260.36 827.07 252.10 825.85 245.03 C 824.73 238.54 821.62 231.58 816.26 227.76 C 810.04 223.33 801.19 222.56 793.69 223.94 C 791.84 224.28 789.68 225.46 789.11 227.25 C 788.47 229.25 789.03 231.45 789.12 233.55 C 789.25 236.63 789.14 239.72 789.13 242.81 C 789.10 249.08 789.12 255.35 789.13 261.62 C 789.13 263.55 789.10 265.47 789.04 267.40 C 788.99 268.90 788.78 270.60 789.60 271.85 C 790.69 273.52 793.35 273.38 795.34 273.55 C 797.93 273.76 800.54 274.20 803.12 273.91 Z"/>
    </g>
    <g id="A-cierre">
      <path id="path_8" d="M 978.46 322.11 C 972.12 322.26 964.35 320.38 960.75 315.15 C 956.96 309.66 955.26 302.97 953.02 296.69 C 952.64 295.63 952.28 294.58 951.93 293.52 C 951.16 291.25 950.30 288.85 948.62 287.13 C 945.71 286.15 942.48 286.65 939.40 286.63 C 935.38 286.60 931.37 286.20 927.35 286.20 C 924.01 286.19 920.65 286.35 917.33 286.73 C 914.40 287.06 911.00 287.81 909.14 290.11 C 907.07 292.68 906.40 296.13 905.25 299.23 C 903.61 303.62 901.68 307.91 900.28 312.38 C 899.75 314.05 899.54 315.82 899.47 317.57 C 899.42 318.81 899.67 320.22 899.01 321.27 C 898.10 322.69 895.50 322.54 893.97 321.83 C 894.45 319.94 895.77 318.38 896.73 316.69 C 898.06 314.37 899.03 311.86 899.97 309.36 C 902.78 301.83 905.58 294.30 908.52 286.81 C 908.93 285.78 910.05 282.86 910.21 282.44 C 910.44 281.81 910.68 281.19 910.91 280.56 C 911.46 279.09 911.99 277.63 912.53 276.16 C 912.92 275.11 913.30 274.06 913.69 273.02 C 914.47 270.93 915.27 268.84 916.07 266.75 C 916.62 265.29 917.18 263.83 917.72 262.37 C 918.03 261.53 918.34 260.69 918.65 259.85 C 919.56 257.34 920.48 254.82 921.41 252.31 C 923.21 247.50 925.10 242.72 926.90 237.91 C 928.77 232.93 929.58 227.36 932.67 223.03 C 935.36 225.58 935.96 229.68 937.37 233.11 C 940.01 239.51 942.64 245.91 945.28 252.31 C 948.58 260.37 951.91 268.41 955.17 276.49 C 957.34 281.87 959.46 287.28 961.61 292.67 C 964.66 300.33 967.11 308.38 971.57 315.32 C 973.32 318.03 976.46 319.58 978.46 322.11 Z"/>
      <path id="path_9" d="M 947.70 284.95 C 948.64 281.90 946.13 278.75 944.96 275.79 C 942.89 270.58 940.81 265.37 938.80 260.14 C 936.98 255.41 935.02 250.74 933.28 245.98 C 932.23 243.12 932.20 238.98 929.45 237.66 C 926.53 239.11 926.21 243.35 925.08 246.41 C 923.17 251.58 921.21 256.74 919.28 261.91 C 917.37 266.99 915.61 272.13 913.65 277.19 C 912.51 280.15 909.83 283.42 911.05 286.35 C 913.60 286.84 916.18 285.55 918.76 285.21 C 923.15 284.62 927.60 284.51 932.03 284.52 C 935.19 284.52 938.37 284.64 941.48 285.17 C 943.53 285.52 946.09 286.26 947.70 284.95 Z"/>
    </g>
  </g>
</svg>